<?xml version="1.0" encoding="UTF-8" standalone="no"?>
<svg
   xmlns:dc="http://purl.org/dc/elements/1.1/"
   xmlns:cc="http://creativecommons.org/ns#"
   xmlns:rdf="http://www.w3.org/1999/02/22-rdf-syntax-ns#"
   xmlns:svg="http://www.w3.org/2000/svg"
   xmlns="http://www.w3.org/2000/svg"
   width="102.4919mm"
   height="102.492mm"
   viewBox="0 0 102.49189 102.492"
   version="1.1"
   id="svg8">
  <defs
     id="defs2" />
  <metadata
     id="metadata5">
    <rdf:RDF>
      <cc:Work
         rdf:about="">
        <dc:format>image/svg+xml</dc:format>
        <dc:type
           rdf:resource="http://purl.org/dc/dcmitype/StillImage" />
        <dc:title />
      </cc:Work>
    </rdf:RDF>
  </metadata>
  <g
     inkscape:label="Layer 1"
     inkscape:groupmode="layer"
     id="layer1"
     transform="translate(-59.236797,-92.655113)">
    <rect
       inkscape:label="squircle"
       ry="51.245949"
       y="92.655113"
       x="59.236797"
       height="102.492"
       width="102.4919"
       id="rect2082"
       style="fill:#f6f8f8;fill-opacity:1;fill-rule:evenodd;stroke:none;stroke-width:1.27083;stroke-opacity:1" />
    <path
       style="fill:#19a9ff;fill-opacity:1;stroke-width:0.0708793"
       d="m 76.807422,131.64447 v -20.90938 h 7.584084 7.58408 v 2.90606 2.90605 H 87.33299 82.690404 v 15.06184 15.06183 h 4.642586 4.642596 v 2.9415 2.94149 h -7.58408 -7.584084 z m 31.683038,17.9679 v -2.9415 h 4.64258 4.6426 V 131.60904 116.5472 h -4.6426 -4.64258 v -2.90605 -2.90606 h 7.58408 7.58408 v 20.90938 20.90939 h -7.58408 -7.58408 z"
       id="lightblue" />
    <path
       style="fill:#0068b5;fill-opacity:1;stroke-width:0.0708793"
       d="m 97.233915,156.54592 v -20.90939 h 7.584085 7.58407 v 2.90605 2.90605 h -4.64258 -4.64259 v 15.06184 15.06184 h 4.64259 4.64258 v 2.9415 2.94149 H 104.818 97.233915 Z m 31.683035,17.96789 v -2.9415 h 4.64259 4.64259 v -15.06184 -15.06184 h -4.64259 -4.64259 v -2.90605 -2.90605 h 7.58408 7.58408 v 20.90939 20.90938 h -7.58408 -7.58408 z"
       id="deepnavyblue" />
  </g>
</svg>
