<?xml version="1.0" encoding="UTF-8" standalone="no"?>
<svg
   xmlns:dc="http://purl.org/dc/elements/1.1/"
   xmlns:cc="http://creativecommons.org/ns#"
   xmlns:rdf="http://www.w3.org/1999/02/22-rdf-syntax-ns#"
   xmlns:svg="http://www.w3.org/2000/svg"
   xmlns="http://www.w3.org/2000/svg"
   width="102.4919mm"
   height="102.492mm"
   viewBox="0 0 102.49189 102.492"
   version="1.1"
   id="svg8">
  <defs
     id="defs2" />
  <metadata
     id="metadata5">
    <rdf:RDF>
      <cc:Work
         rdf:about="">
        <dc:format>image/svg+xml</dc:format>
        <dc:type
           rdf:resource="http://purl.org/dc/dcmitype/StillImage" />
        <dc:title />
      </cc:Work>
    </rdf:RDF>
  </metadata>
  <g
     id="layer1"
     transform="matrix(1.17671,0,0,1.17671,-78.756981,-118.10102)">
    <rect
       ry="51.245949"
       y="92.655113"
       x="59.236797"
       height="102.492"
       width="102.4919"
       id="circle"
       style="display:none;fill:#aaaaaa;fill-opacity:1;fill-rule:evenodd;stroke:none;stroke-width:1.27083;stroke-opacity:1" />
    <path
       id="rect872-1"
       style="display:inline;fill:#ffffff;fill-opacity:1;stroke:none;stroke-width:6.82677;stroke-linecap:butt;stroke-linejoin:round;stroke-miterlimit:4;stroke-dasharray:none;stroke-opacity:1;paint-order:stroke markers fill"
       d="m 98.2223,129.1133 h 44.91716 c 4.44951,0 8.0316,3.5821 8.0316,8.03161 v 38.36707 c 0,4.44951 -3.58209,8.03161 -8.0316,8.03161 H 98.2223 c -4.449511,0 -8.031609,-3.5821 -8.031609,-8.03161 v -38.36707 c 0,-4.44951 3.582098,-8.03161 8.031609,-8.03161 z" />
    <path
       id="rect872"
       style="display:inline;fill:#ffffff;fill-opacity:1;stroke:none;stroke-width:6.82675;stroke-linecap:butt;stroke-linejoin:round;stroke-miterlimit:4;stroke-dasharray:none;stroke-opacity:1;paint-order:stroke markers fill"
       d="m 77.789552,104.45273 h 44.917158 c 4.44952,0 8.03161,3.5821 8.03161,8.03161 l 0.0301,16.62926 -40.577027,29.77124 -12.401871,-0.002 c -4.449512,-7.2e-4 -8.03161,-3.5821 -8.03161,-8.03161 v -38.36707 c 0,-4.44951 3.582098,-8.03161 8.03161,-8.03161 z" />
    <path
       style="fill:#19a9ff;fill-opacity:1;stroke:none;stroke-width:5.02708;stroke-linecap:butt;stroke-linejoin:round;stroke-miterlimit:4;stroke-dasharray:none;stroke-opacity:1;paint-order:stroke markers fill"
       d="m 78.205044,132.16177 v -20.04064 h 7.268983 7.268978 v 2.78532 2.78531 h -4.449707 -4.449697 v 14.43605 14.43605 h 4.449697 4.449707 v 2.81928 2.81928 h -7.268978 -7.268983 z m 30.366676,17.22137 v -2.81928 h 4.44969 4.44971 v -14.43605 -14.43605 h -4.44971 -4.44969 v -2.78531 -2.78532 h 7.26898 7.26898 v 20.04064 20.04065 h -7.26898 -7.26898 z"
       id="path855" />
    <path
       style="fill:#0068b5;fill-opacity:1;stroke:none;stroke-width:5.02708;stroke-linejoin:round;stroke-miterlimit:4;stroke-dasharray:none;stroke-opacity:1;paint-order:stroke markers fill"
       d="m 97.782862,156.02862 v -20.04065 h 7.268978 7.26897 v 2.78531 2.78531 h -4.44969 -4.4497 v 14.43605 14.43606 h 4.4497 4.44969 v 2.81929 2.81927 h -7.26897 -7.268978 z m 30.366668,17.22137 v -2.81929 h 4.44971 4.4497 v -14.43606 -14.43605 h -4.4497 -4.44971 v -2.78531 -2.78531 h 7.26898 7.26898 v 20.04065 20.04064 h -7.26898 -7.26898 z"
       id="path857" />
  </g>
</svg>