<svg xmlns="http://www.w3.org/2000/svg" width="387.371" height="387.371" viewBox="0 0 102.492 102.492"><path style="display:inline;fill:#fff;fill-opacity:1;stroke:none;stroke-width:6.82677;stroke-linecap:butt;stroke-linejoin:round;stroke-miterlimit:4;stroke-dasharray:none;stroke-opacity:1;paint-order:stroke markers fill" d="M98.222 129.113h44.917a8.014 8.014 0 0 1 8.032 8.032v38.367a8.014 8.014 0 0 1-8.032 8.032H98.222a8.014 8.014 0 0 1-8.031-8.032v-38.367a8.014 8.014 0 0 1 8.031-8.032z" transform="translate(-78.757 -118.101) scale(1.17671)"/><path style="display:inline;fill:#fff;fill-opacity:1;stroke:none;stroke-width:6.82675;stroke-linecap:butt;stroke-linejoin:round;stroke-miterlimit:4;stroke-dasharray:none;stroke-opacity:1;paint-order:stroke markers fill" d="M77.79 104.453h44.917a8.014 8.014 0 0 1 8.031 8.031l.03 16.63-40.577 29.77-12.401-.001a8.014 8.014 0 0 1-8.032-8.032v-38.367a8.014 8.014 0 0 1 8.032-8.031z" transform="translate(-78.757 -118.101) scale(1.17671)"/><path style="fill:#19a9ff;fill-opacity:1;stroke:none;stroke-width:5.02708;stroke-linecap:butt;stroke-linejoin:round;stroke-miterlimit:4;stroke-dasharray:none;stroke-opacity:1;paint-order:stroke markers fill" d="M78.205 132.162v-20.04h14.538v5.57h-8.9v28.872h8.9v5.638H78.205zm30.367 17.221v-2.82h8.9V117.693h-8.9v-5.571h14.538v40.081h-14.538z" transform="translate(-78.757 -118.101) scale(1.17671)"/><path style="fill:#0068b5;fill-opacity:1;stroke:none;stroke-width:5.02708;stroke-linejoin:round;stroke-miterlimit:4;stroke-dasharray:none;stroke-opacity:1;paint-order:stroke markers fill" d="M97.783 156.029v-20.041h14.538v5.571h-8.9v28.872h8.9V176.07H97.783zm30.367 17.221v-2.82H137.049V141.56h-8.9v-5.571h14.538v40.081H128.15z" transform="translate(-78.757 -118.101) scale(1.17671)"/></svg>